<svg version="1.1" xmlns="http://www.w3.org/2000/svg" viewBox="0 0 3165.8778003205653 2129.6509201482095" width="3165.8778003205653" height="2129.6509201482095" filter="invert(93%) hue-rotate(180deg)">
  <!-- svg-source:excalidraw -->
  
  <defs>
    <style class="style-fonts">
      @font-face {
        font-family: "Virgil";
        src: url("https://excalidraw.com/Virgil.woff2");
      }
      @font-face {
        font-family: "Cascadia";
        src: url("https://excalidraw.com/Cascadia.woff2");
      }
    </style>
  </defs>
  <rect x="0" y="0" width="3165.8778003205653" height="2129.6509201482095" fill="#ffffff"></rect><g stroke-linecap="round" transform="translate(667.9675068533395 109.46531499303092) rotate(0 797.5 541)"><path d="M32 0 M32 0 C638.62 0.6, 1246.39 0.84, 1563 0 M32 0 C410.95 3.31, 789.92 3.86, 1563 0 M1563 0 C1584.09 0.62, 1596.21 11.58, 1595 32 M1563 0 C1584.58 -0.07, 1594.33 8.83, 1595 32 M1595 32 C1594.37 323.17, 1595.54 613.86, 1595 1050 M1595 32 C1591.95 254.98, 1592.04 477.35, 1595 1050 M1595 1050 C1596.62 1071.73, 1583.43 1083.21, 1563 1082 M1595 1050 C1592.73 1070.74, 1584.48 1083.39, 1563 1082 M1563 1082 C1209.18 1088.8, 856.23 1088.15, 32 1082 M1563 1082 C1073.27 1077.75, 584.65 1077.97, 32 1082 M32 1082 C10.01 1081.99, -0.41 1071.28, 0 1050 M32 1082 C10.53 1083.75, -1.43 1069.31, 0 1050 M0 1050 C0.53 767.74, 0.64 487.03, 0 32 M0 1050 C-0.59 674.35, -1.25 298.65, 0 32 M0 32 C0.09 8.83, 10.43 -0.62, 32 0 M0 32 C0 11.28, 12.89 1.1, 32 0" stroke="#495057" stroke-width="1" fill="none"></path></g><g transform="translate(1221.4675068533395 66.96531499303092) rotate(0 184.5 18)"><text x="184.5" y="25" font-family="Virgil, Segoe UI Emoji" font-size="28px" fill="#495057" text-anchor="middle" style="white-space: pre;" direction="ltr">Tic Tac Toe Game Design</text></g><g stroke-linecap="round" transform="translate(831.9652323725263 472.64617862315845) rotate(0 161.26661663673124 55.066649583274284)"><path d="M27.53 0 M27.53 0 C88.57 -2.79, 149.8 -1, 295 0 M27.53 0 C83.1 1.35, 139.97 2.09, 295 0 M295 0 C311.75 1.62, 321.33 9.21, 322.53 27.53 M295 0 C314.06 0.23, 323.64 9.03, 322.53 27.53 M322.53 27.53 C320.41 44.12, 320.93 60.04, 322.53 82.6 M322.53 27.53 C323.22 40.79, 322.73 54.9, 322.53 82.6 M322.53 82.6 C320.92 100.44, 311.42 109.6, 295 110.13 M322.53 82.6 C323.92 101.27, 312.2 112.37, 295 110.13 M295 110.13 C225.61 110.49, 156.64 112.61, 27.53 110.13 M295 110.13 C207.12 111.81, 119.34 111.72, 27.53 110.13 M27.53 110.13 C8.7 110.76, 1.94 100.54, 0 82.6 M27.53 110.13 C10.97 108.84, 1.62 99.87, 0 82.6 M0 82.6 C1.44 72.28, -1.36 58.92, 0 27.53 M0 82.6 C0.6 67.57, -0.26 53.63, 0 27.53 M0 27.53 C-0.1 8.6, 10.59 -0.75, 27.53 0 M0 27.53 C0.94 9.27, 7.71 1.47, 27.53 0" stroke="#000000" stroke-width="1" fill="none"></path></g><g transform="translate(872.4223626786052 514.0890190312639) rotate(0 54.5 18)"><text x="0" y="25" font-family="Virgil, Segoe UI Emoji" font-size="28px" fill="#000000" text-anchor="start" style="white-space: pre;" direction="ltr">Player 1</text></g><g transform="translate(1108.4222894640654 515.2128282064332) rotate(0 10.5 18)"><text x="0" y="25" font-family="Virgil, Segoe UI Emoji" font-size="28px" fill="#000000" text-anchor="start" style="white-space: pre;" direction="ltr">0</text></g><g stroke-linecap="round" transform="translate(834.7923148288105 840.1317789033756) rotate(0 161.2666166367312 55.066649583274284)"><path d="M27.53 0 M27.53 0 C125.15 -0.32, 220.71 -2.41, 295 0 M27.53 0 C130.89 0.27, 235.68 0.36, 295 0 M295 0 C313.71 0.83, 322.74 9.04, 322.53 27.53 M295 0 C313.3 -0.73, 321.1 9.33, 322.53 27.53 M322.53 27.53 C322.7 44.18, 322.43 61.21, 322.53 82.6 M322.53 27.53 C322.15 47.75, 323.28 67.91, 322.53 82.6 M322.53 82.6 C324.06 100.04, 313.59 108.15, 295 110.13 M322.53 82.6 C324.12 99.45, 312.4 110.7, 295 110.13 M295 110.13 C231.72 109.37, 169.64 108.99, 27.53 110.13 M295 110.13 C216.17 109.26, 137.61 109.98, 27.53 110.13 M27.53 110.13 C8.23 111.81, 1.51 100, 0 82.6 M27.53 110.13 C11.06 110.85, -1.25 98.83, 0 82.6 M0 82.6 C0.36 68.72, -0.6 57.39, 0 27.53 M0 82.6 C0.89 69.77, 0.2 55.86, 0 27.53 M0 27.53 C-0.54 8.22, 10.98 -1.22, 27.53 0 M0 27.53 C-1.77 11.09, 9.72 1.71, 27.53 0" stroke="#000000" stroke-width="1" fill="none"></path></g><g transform="translate(871.2589534299036 881.0698560121573) rotate(0 60.5 18)"><text x="0" y="25" font-family="Virgil, Segoe UI Emoji" font-size="28px" fill="#000000" text-anchor="start" style="white-space: pre;" direction="ltr">Player 2</text></g><g transform="translate(1113.0493682596227 881.0698560121573) rotate(0 9.5 18)"><text x="0" y="25" font-family="Virgil, Segoe UI Emoji" font-size="28px" fill="#000000" text-anchor="start" style="white-space: pre;" direction="ltr">X</text></g><g stroke-linecap="round" transform="translate(1288.4106066124114 367.96520298459654) rotate(0 450.6474792427122 364.1141727547101)"><path d="M32 0 M32 0 C331.29 -3.44, 630.45 -3, 869.29 0 M32 0 C334.3 0.86, 636.4 0.8, 869.29 0 M869.29 0 C892.61 -0.14, 901.16 9.35, 901.29 32 M869.29 0 C891.14 -1.05, 901.45 11.25, 901.29 32 M901.29 32 C898.8 251.2, 899.16 471.32, 901.29 696.23 M901.29 32 C903.98 277.3, 903.82 522.58, 901.29 696.23 M901.29 696.23 C900.12 716.51, 888.79 728.43, 869.29 728.23 M901.29 696.23 C902.07 716.03, 889.32 726.01, 869.29 728.23 M869.29 728.23 C628.93 729.42, 388.58 729.54, 32 728.23 M869.29 728.23 C613.91 728.47, 357.6 728.73, 32 728.23 M32 728.23 C11.47 727.92, 1.86 718.54, 0 696.23 M32 728.23 C10.99 729.99, -1.86 717.12, 0 696.23 M0 696.23 C1.72 554.82, 1.37 412.84, 0 32 M0 696.23 C1.52 449.04, 1.01 202.65, 0 32 M0 32 C0.92 11.2, 9.55 1.91, 32 0 M0 32 C1.51 10.44, 8.54 1.44, 32 0" stroke="#000000" stroke-width="1" fill="none"></path></g><g stroke-linecap="round"><g transform="translate(1635.6676417395884 424.1556617430397) rotate(0 1.0613565824559146 307.0809086063964)"><path d="M-1.04 0.06 C-0.67 102.54, 2.4 511.46, 3.16 613.97 M0.62 -0.95 C0.72 101.75, 1.73 512.79, 2.1 615.11" stroke="#000000" stroke-width="1" fill="none"></path></g></g><mask></mask><g stroke-linecap="round"><g transform="translate(1857.0580492478537 423.0318525678713) rotate(0 0.6869734525436115 309.14525438771534)"><path d="M-0.86 -0.34 C-0.61 102.88, 1.56 515.11, 2.23 618.24 M0.89 -1.57 C0.92 101.97, 0.94 516.88, 1.28 619.86" stroke="#000000" stroke-width="1" fill="none"></path></g></g><mask></mask><g stroke-linecap="round"><g transform="translate(1752.0014646521927 297.8095468064521) rotate(90.01224260883218 1.5368410013250013 307.5801826092179)"><path d="M-0.35 0.68 C0.39 103.27, 2.63 513.02, 3.42 615.17 M1.67 -0.01 C2.34 102.25, 2.08 510.91, 2.5 613.28" stroke="#000000" stroke-width="1" fill="none"></path></g></g><mask></mask><g stroke-linecap="round"><g transform="translate(1750.8541066743117 518.4206872693339) rotate(90.01224260883218 1.1354149837035266 309.0815069479818)"><path d="M0.68 0.05 C1.19 103.3, 2.63 516.19, 2.69 619.13 M-0.42 -0.97 C0 101.99, 1.35 514.26, 1.98 617.55" stroke="#000000" stroke-width="1" fill="none"></path></g></g><mask></mask><g transform="translate(1476.1042983839727 389.7985241155029) rotate(0 60 125.5)"><text x="0" y="176" font-family="Virgil, Segoe UI Emoji" font-size="197.82852122431578px" fill="#000000" text-anchor="start" style="white-space: pre;" direction="ltr">X</text></g><g transform="translate(1686.2741736589112 418.2699443195561) rotate(0 63 108.5)"><text x="0" y="152" font-family="Virgil, Segoe UI Emoji" font-size="170.85710102026292px" fill="#000000" text-anchor="start" style="white-space: pre;" direction="ltr">O</text></g><g transform="translate(1463.7456670775036 826.4555299568656) rotate(0 63 108.5)"><text x="0" y="152" font-family="Virgil, Segoe UI Emoji" font-size="170.85710102026292px" fill="#000000" text-anchor="start" style="white-space: pre;" direction="ltr">O</text></g><g transform="translate(1903.155054568527 616.3032142002885) rotate(0 63 108.5)"><text x="0" y="152" font-family="Virgil, Segoe UI Emoji" font-size="170.85710102026292px" fill="#000000" text-anchor="start" style="white-space: pre;" direction="ltr">O</text></g><g transform="translate(1471.3647129533474 587.0841756458967) rotate(0 60 125.5)"><text x="0" y="176" font-family="Virgil, Segoe UI Emoji" font-size="197.82852122431578px" fill="#000000" text-anchor="start" style="white-space: pre;" direction="ltr">X</text></g><g transform="translate(1689.3836929361064 585.9603664707302) rotate(0 60 125.5)"><text x="0" y="176" font-family="Virgil, Segoe UI Emoji" font-size="197.82852122431578px" fill="#000000" text-anchor="start" style="white-space: pre;" direction="ltr">X</text></g><g transform="translate(801.6223846429671 192.55102245847684) rotate(0 116.5 23)"><text x="0" y="32" font-family="Virgil, Segoe UI Emoji" font-size="36px" fill="#000000" text-anchor="start" style="white-space: pre;" direction="ltr">Tic Tac Toe</text></g><g stroke-linecap="round" transform="translate(2063.6600883575957 197.3129307067893) rotate(0 58.43807710878059 27.5)"><path d="M13.75 0 M13.75 0 C36.87 0, 59.98 0, 103.13 0 M13.75 0 C34.81 0, 55.86 0, 103.13 0 M103.13 0 C112.29 0, 116.88 4.58, 116.88 13.75 M103.13 0 C112.29 0, 116.88 4.58, 116.88 13.75 M116.88 13.75 C116.88 23.56, 116.88 33.37, 116.88 41.25 M116.88 13.75 C116.88 20.13, 116.88 26.51, 116.88 41.25 M116.88 41.25 C116.88 50.42, 112.29 55, 103.13 55 M116.88 41.25 C116.88 50.42, 112.29 55, 103.13 55 M103.13 55 C72.91 55, 42.7 55, 13.75 55 M103.13 55 C76.03 55, 48.93 55, 13.75 55 M13.75 55 C4.58 55, 0 50.42, 0 41.25 M13.75 55 C4.58 55, 0 50.42, 0 41.25 M0 41.25 C0 33.93, 0 26.61, 0 13.75 M0 41.25 C0 34.34, 0 27.43, 0 13.75 M0 13.75 C0 4.58, 4.58 0, 13.75 0 M0 13.75 C0 4.58, 4.58 0, 13.75 0" stroke="#000000" stroke-width="1" fill="none"></path></g><g transform="translate(2092.0981654663765 212.3129307067893) rotate(0 30 12.5)"><text x="30" y="18" font-family="Virgil, Segoe UI Emoji" font-size="20px" fill="#000000" text-anchor="middle" style="white-space: pre;" direction="ltr">Reset</text></g><g stroke-linecap="round"><g transform="translate(2297.25875444472 735.1212100154071) rotate(0 -51.51141680474234 0.21453531208817367)"><path d="M0 0 C-17.17 0.07, -85.85 0.36, -103.02 0.43 M0 0 C-17.17 0.07, -85.85 0.36, -103.02 0.43" stroke="#000000" stroke-width="1" fill="none"></path></g><g transform="translate(2297.25875444472 735.1212100154071) rotate(0 -51.51141680474234 0.21453531208817367)"><path d="M-74.88 -9.95 C-84.84 -6.28, -94.8 -2.6, -103.02 0.43 M-74.88 -9.95 C-83.17 -6.89, -91.47 -3.83, -103.02 0.43" stroke="#000000" stroke-width="1" fill="none"></path></g><g transform="translate(2297.25875444472 735.1212100154071) rotate(0 -51.51141680474234 0.21453531208817367)"><path d="M-74.79 10.57 C-84.78 6.98, -94.78 3.39, -103.02 0.43 M-74.79 10.57 C-83.11 7.58, -91.43 4.59, -103.02 0.43" stroke="#000000" stroke-width="1" fill="none"></path></g></g><mask></mask><g transform="translate(2302.8778003205653 716.8463764604594) rotate(0 426.4999999999999 15.5)"><text x="0" y="22" font-family="Virgil, Segoe UI Emoji" font-size="24.49523670067574px" fill="#000000" text-anchor="start" style="white-space: pre;" direction="ltr">Background image CSS for board, and flex-grid for buttons / content.</text></g><g transform="translate(2132.63987402616 10) rotate(0 267 12.5)"><text x="0" y="18" font-family="Virgil, Segoe UI Emoji" font-size="20px" fill="#000000" text-anchor="start" style="white-space: pre;" direction="ltr">Reset button resets board, but not player win count.</text></g><g stroke-linecap="round"><g transform="translate(2122.761207533701 21.46966662311388) rotate(0 -31.49108336984625 83.27006720407871)"><path d="M0 0 C-10.5 3.09, -62.36 -9.26, -62.98 18.52 C-63.59 46.31, -13.58 142.01, -3.7 166.7 M0 0 C-10.5 3.09, -62.36 -9.26, -62.98 18.52 C-63.59 46.31, -13.58 142.01, -3.7 166.7" stroke="#000000" stroke-width="1" fill="none"></path></g><g transform="translate(2122.761207533701 21.46966662311388) rotate(0 -31.49108336984625 83.27006720407871)"><path d="M-24.79 145.36 C-18.1 152.13, -11.42 158.89, -3.7 166.7 M-24.79 145.36 C-17.83 152.4, -10.87 159.45, -3.7 166.7" stroke="#000000" stroke-width="1" fill="none"></path></g><g transform="translate(2122.761207533701 21.46966662311388) rotate(0 -31.49108336984625 83.27006720407871)"><path d="M-6.14 136.8 C-5.37 146.28, -4.59 155.76, -3.7 166.7 M-6.14 136.8 C-5.33 146.67, -4.53 156.54, -3.7 166.7" stroke="#000000" stroke-width="1" fill="none"></path></g></g><mask></mask><g transform="translate(10 691.6279879796748) rotate(0 293.5 25)"><text x="0" y="18" font-family="Virgil, Segoe UI Emoji" font-size="20px" fill="#000000" text-anchor="start" style="white-space: pre;" direction="ltr">Player name, for now default will be Player 1 and Player 2.</text><text x="0" y="43" font-family="Virgil, Segoe UI Emoji" font-size="20px" fill="#000000" text-anchor="start" style="white-space: pre;" direction="ltr">Letter on the right represents if a player is Xs or Os.</text></g><g stroke-linecap="round"><g transform="translate(417.5402347273725 674.0307006628409) rotate(0 204.95006162656196 -78.02531211145151)"><path d="M0 0 C31.89 -23.97, 123.02 -119.02, 191.33 -143.81 C259.65 -168.6, 373.47 -147.93, 409.9 -148.75 M0 0 C31.89 -23.97, 123.02 -119.02, 191.33 -143.81 C259.65 -168.6, 373.47 -147.93, 409.9 -148.75" stroke="#000000" stroke-width="1" fill="none"></path></g><g transform="translate(417.5402347273725 674.0307006628409) rotate(0 204.95006162656196 -78.02531211145151)"><path d="M381.11 -140.33 C388.89 -142.6, 396.66 -144.88, 409.9 -148.75 M381.11 -140.33 C391.23 -143.29, 401.36 -146.25, 409.9 -148.75" stroke="#000000" stroke-width="1" fill="none"></path></g><g transform="translate(417.5402347273725 674.0307006628409) rotate(0 204.95006162656196 -78.02531211145151)"><path d="M382.43 -160.81 C389.85 -157.55, 397.27 -154.29, 409.9 -148.75 M382.43 -160.81 C392.09 -156.57, 401.75 -152.33, 409.9 -148.75" stroke="#000000" stroke-width="1" fill="none"></path></g></g><mask></mask><g stroke-linecap="round"><g transform="translate(409.7132059539498 753.8269552272086) rotate(0 209.4809926690519 80.38200994979115)"><path d="M0 0 C32.37 25.3, 124.4 127.93, 194.22 151.78 C264.05 175.64, 381.51 144.58, 418.96 143.14 M0 0 C32.37 25.3, 124.4 127.93, 194.22 151.78 C264.05 175.64, 381.51 144.58, 418.96 143.14" stroke="#000000" stroke-width="1" fill="none"></path></g><g transform="translate(409.7132059539498 753.8269552272086) rotate(0 209.4809926690519 80.38200994979115)"><path d="M392.4 157.08 C398.89 153.68, 405.39 150.27, 418.96 143.14 M392.4 157.08 C398.32 153.97, 404.25 150.86, 418.96 143.14" stroke="#000000" stroke-width="1" fill="none"></path></g><g transform="translate(409.7132059539498 753.8269552272086) rotate(0 209.4809926690519 80.38200994979115)"><path d="M389.65 136.75 C396.82 138.31, 403.98 139.87, 418.96 143.14 M389.65 136.75 C396.19 138.17, 402.72 139.6, 418.96 143.14" stroke="#000000" stroke-width="1" fill="none"></path></g></g><mask></mask><g stroke-linecap="round" transform="translate(672.0760989749747 1225.186691616882) rotate(0 396.03335338798377 226.92037534382052)"><path d="M32 0 M32 0 C213.06 0, 394.11 0, 760.07 0 M32 0 C201.44 0, 370.88 0, 760.07 0 M760.07 0 C781.4 0, 792.07 10.67, 792.07 32 M760.07 0 C781.4 0, 792.07 10.67, 792.07 32 M792.07 32 C792.07 149.98, 792.07 267.97, 792.07 421.84 M792.07 32 C792.07 170.39, 792.07 308.79, 792.07 421.84 M792.07 421.84 C792.07 443.17, 781.4 453.84, 760.07 453.84 M792.07 421.84 C792.07 443.17, 781.4 453.84, 760.07 453.84 M760.07 453.84 C532.45 453.84, 304.84 453.84, 32 453.84 M760.07 453.84 C560.19 453.84, 360.31 453.84, 32 453.84 M32 453.84 C10.67 453.84, 0 443.17, 0 421.84 M32 453.84 C10.67 453.84, 0 443.17, 0 421.84 M0 421.84 C0 285.75, 0 149.66, 0 32 M0 421.84 C0 318.47, 0 215.09, 0 32 M0 32 C0 10.67, 10.67 0, 32 0 M0 32 C0 10.67, 10.67 0, 32 0" stroke="#000000" stroke-width="1" fill="none"></path></g><g transform="translate(951.9945090932727 1253.8067944230934) rotate(0 101 23.5)"><text x="0" y="33" font-family="Virgil, Segoe UI Emoji" font-size="37.492629166641656px" fill="#000000" text-anchor="start" style="white-space: pre;" direction="ltr">Game Loop</text></g><g transform="translate(762.5943719204488 1381.3941274719791) rotate(0 315.5 117.5)"><text x="0" y="33" font-family="Virgil, Segoe UI Emoji" font-size="37.492629166641656px" fill="#000000" text-anchor="start" style="white-space: pre;" direction="ltr">- User clicks on empty space.</text><text x="0" y="80" font-family="Virgil, Segoe UI Emoji" font-size="37.492629166641656px" fill="#000000" text-anchor="start" style="white-space: pre;" direction="ltr">- Space is marked by user's token</text><text x="0" y="127" font-family="Virgil, Segoe UI Emoji" font-size="37.492629166641656px" fill="#000000" text-anchor="start" style="white-space: pre;" direction="ltr">- win conditions evaluated.</text><text x="0" y="174" font-family="Virgil, Segoe UI Emoji" font-size="37.492629166641656px" fill="#000000" text-anchor="start" style="white-space: pre;" direction="ltr">- If not win -&gt; next player turn</text><text x="0" y="221" font-family="Virgil, Segoe UI Emoji" font-size="37.492629166641656px" fill="#000000" text-anchor="start" style="white-space: pre;" direction="ltr">- If win -&gt; reset board and notif.</text></g><g stroke-linecap="round" transform="translate(1478.8282159007897 1222.2224239782136) rotate(0 396.03335338798365 226.92037534382052)"><path d="M32 0 M32 0 C268.19 0, 504.37 0, 760.07 0 M32 0 C266.28 0, 500.56 0, 760.07 0 M760.07 0 C781.4 0, 792.07 10.67, 792.07 32 M760.07 0 C781.4 0, 792.07 10.67, 792.07 32 M792.07 32 C792.07 141.03, 792.07 250.07, 792.07 421.84 M792.07 32 C792.07 159.23, 792.07 286.46, 792.07 421.84 M792.07 421.84 C792.07 443.17, 781.4 453.84, 760.07 453.84 M792.07 421.84 C792.07 443.17, 781.4 453.84, 760.07 453.84 M760.07 453.84 C494.96 453.84, 229.85 453.84, 32 453.84 M760.07 453.84 C614.04 453.84, 468.01 453.84, 32 453.84 M32 453.84 C10.67 453.84, 0 443.17, 0 421.84 M32 453.84 C10.67 453.84, 0 443.17, 0 421.84 M0 421.84 C0 307.58, 0 193.31, 0 32 M0 421.84 C0 283.61, 0 145.37, 0 32 M0 32 C0 10.67, 10.67 0, 32 0 M0 32 C0 10.67, 10.67 0, 32 0" stroke="#000000" stroke-width="1" fill="none"></path></g><g transform="translate(1811.4020277715324 1247.4084788440487) rotate(0 45 23.5)"><text x="0" y="33" font-family="Virgil, Segoe UI Emoji" font-size="37.492629166641656px" fill="#000000" text-anchor="start" style="white-space: pre;" direction="ltr">Tech</text></g><g transform="translate(1692.8588840321281 1366.375741793021) rotate(0 173.5 100)"><text x="0" y="46.66666666666667" font-family="Virgil, Segoe UI Emoji" font-size="52.332176989939434px" fill="#000000" text-anchor="start" style="white-space: pre;" direction="ltr">- Next.JS</text><text x="0" y="113.33333333333334" font-family="Virgil, Segoe UI Emoji" font-size="52.332176989939434px" fill="#000000" text-anchor="start" style="white-space: pre;" direction="ltr">- TypeScript</text><text x="0" y="180" font-family="Virgil, Segoe UI Emoji" font-size="52.332176989939434px" fill="#000000" text-anchor="start" style="white-space: pre;" direction="ltr">- TailwindCSS</text></g><g stroke-linecap="round" transform="translate(682.6610407015098 1694.7793099245118) rotate(0 793.0554988676838 212.43580511184882)"><path d="M32 0 M32 0 C594.58 0, 1157.15 0, 1554.11 0 M32 0 C490.9 0, 949.8 0, 1554.11 0 M1554.11 0 C1575.44 0, 1586.11 10.67, 1586.11 32 M1554.11 0 C1575.44 0, 1586.11 10.67, 1586.11 32 M1586.11 32 C1586.11 121.38, 1586.11 210.76, 1586.11 392.87 M1586.11 32 C1586.11 166.16, 1586.11 300.31, 1586.11 392.87 M1586.11 392.87 C1586.11 414.2, 1575.44 424.87, 1554.11 424.87 M1586.11 392.87 C1586.11 414.2, 1575.44 424.87, 1554.11 424.87 M1554.11 424.87 C1142.92 424.87, 731.74 424.87, 32 424.87 M1554.11 424.87 C1017.32 424.87, 480.53 424.87, 32 424.87 M32 424.87 C10.67 424.87, 0 414.2, 0 392.87 M32 424.87 C10.67 424.87, 0 414.2, 0 392.87 M0 392.87 C0 252.18, 0 111.48, 0 32 M0 392.87 C0 314.6, 0 236.32, 0 32 M0 32 C0 10.67, 10.67 0, 32 0 M0 32 C0 10.67, 10.67 0, 32 0" stroke="#000000" stroke-width="1" fill="none"></path></g><g transform="translate(705.244517992604 1716.2717494953913) rotate(0 167 23)"><text x="0" y="33" font-family="Virgil, Segoe UI Emoji" font-size="36.68543983008441px" fill="#000000" text-anchor="start" style="white-space: pre;" direction="ltr">Storing board info:</text></g><g transform="translate(996.0262382643364 1795.7234400024072) rotate(0 170.99999999999997 13)"><text x="0" y="18" font-family="Virgil, Segoe UI Emoji" font-size="20.38079990560245px" fill="#000000" text-anchor="start" style="white-space: pre;" direction="ltr">storing the board info: 3x3 array</text></g><g stroke-linecap="round" transform="translate(1058.9644474517304 1869.3383738463526) rotate(0 10.947180313166996 13.463826577790769)"><path d="M5.47 0 M5.47 0 C8.54 0, 11.6 0, 16.42 0 M5.47 0 C8.3 0, 11.14 0, 16.42 0 M16.42 0 C20.07 0, 21.89 1.82, 21.89 5.47 M16.42 0 C20.07 0, 21.89 1.82, 21.89 5.47 M21.89 5.47 C21.89 9.73, 21.89 13.98, 21.89 21.45 M21.89 5.47 C21.89 11.79, 21.89 18.11, 21.89 21.45 M21.89 21.45 C21.89 25.1, 20.07 26.93, 16.42 26.93 M21.89 21.45 C21.89 25.1, 20.07 26.93, 16.42 26.93 M16.42 26.93 C13.5 26.93, 10.57 26.93, 5.47 26.93 M16.42 26.93 C13.28 26.93, 10.14 26.93, 5.47 26.93 M5.47 26.93 C1.82 26.93, 0 25.1, 0 21.45 M5.47 26.93 C1.82 26.93, 0 25.1, 0 21.45 M0 21.45 C0 15.99, 0 10.53, 0 5.47 M0 21.45 C0 16.75, 0 12.05, 0 5.47 M0 5.47 C0 1.82, 1.82 0, 5.47 0 M0 5.47 C0 1.82, 1.82 0, 5.47 0" stroke="#000000" stroke-width="1" fill="none"></path></g><g stroke-linecap="round" transform="translate(1059.6071766222035 1949.8654252018778) rotate(0 10.947180313166996 13.463826577790769)"><path d="M5.47 0 M5.47 0 C9.72 0, 13.97 0, 16.42 0 M5.47 0 C7.8 0, 10.12 0, 16.42 0 M16.42 0 C20.07 0, 21.89 1.82, 21.89 5.47 M16.42 0 C20.07 0, 21.89 1.82, 21.89 5.47 M21.89 5.47 C21.89 11.28, 21.89 17.09, 21.89 21.45 M21.89 5.47 C21.89 10.69, 21.89 15.91, 21.89 21.45 M21.89 21.45 C21.89 25.1, 20.07 26.93, 16.42 26.93 M21.89 21.45 C21.89 25.1, 20.07 26.93, 16.42 26.93 M16.42 26.93 C12.36 26.93, 8.29 26.93, 5.47 26.93 M16.42 26.93 C13.3 26.93, 10.17 26.93, 5.47 26.93 M5.47 26.93 C1.82 26.93, 0 25.1, 0 21.45 M5.47 26.93 C1.82 26.93, 0 25.1, 0 21.45 M0 21.45 C0 16.87, 0 12.28, 0 5.47 M0 21.45 C0 17.01, 0 12.56, 0 5.47 M0 5.47 C0 1.82, 1.82 0, 5.47 0 M0 5.47 C0 1.82, 1.82 0, 5.47 0" stroke="#000000" stroke-width="1" fill="none"></path></g><g stroke-linecap="round" transform="translate(1059.193509026745 1910.0186414809777) rotate(0 10.947180313166996 13.463826577790769)"><path d="M5.47 0 M5.47 0 C9.27 0, 13.08 0, 16.42 0 M5.47 0 C9.56 0, 13.64 0, 16.42 0 M16.42 0 C20.07 0, 21.89 1.82, 21.89 5.47 M16.42 0 C20.07 0, 21.89 1.82, 21.89 5.47 M21.89 5.47 C21.89 9.26, 21.89 13.04, 21.89 21.45 M21.89 5.47 C21.89 11.28, 21.89 17.09, 21.89 21.45 M21.89 21.45 C21.89 25.1, 20.07 26.93, 16.42 26.93 M21.89 21.45 C21.89 25.1, 20.07 26.93, 16.42 26.93 M16.42 26.93 C12.38 26.93, 8.34 26.93, 5.47 26.93 M16.42 26.93 C13.35 26.93, 10.28 26.93, 5.47 26.93 M5.47 26.93 C1.82 26.93, 0 25.1, 0 21.45 M5.47 26.93 C1.82 26.93, 0 25.1, 0 21.45 M0 21.45 C0 15.88, 0 10.31, 0 5.47 M0 21.45 C0 17.92, 0 14.38, 0 5.47 M0 5.47 C0 1.82, 1.82 0, 5.47 0 M0 5.47 C0 1.82, 1.82 0, 5.47 0" stroke="#000000" stroke-width="1" fill="none"></path></g><g stroke-linecap="round" transform="translate(1143.127685823541 1864.0029278822376) rotate(0 13.247519938641574 18)"><path d="M6.62 0 M6.62 0 C11.39 0, 16.16 0, 19.87 0 M6.62 0 C11.58 0, 16.54 0, 19.87 0 M19.87 0 C24.29 0, 26.5 2.21, 26.5 6.62 M19.87 0 C24.29 0, 26.5 2.21, 26.5 6.62 M26.5 6.62 C26.5 11.74, 26.5 16.85, 26.5 29.38 M26.5 6.62 C26.5 13.03, 26.5 19.43, 26.5 29.38 M26.5 29.38 C26.5 33.79, 24.29 36, 19.87 36 M26.5 29.38 C26.5 33.79, 24.29 36, 19.87 36 M19.87 36 C16.26 36, 12.66 36, 6.62 36 M19.87 36 C14.9 36, 9.93 36, 6.62 36 M6.62 36 C2.21 36, 0 33.79, 0 29.38 M6.62 36 C2.21 36, 0 33.79, 0 29.38 M0 29.38 C0 22.22, 0 15.06, 0 6.62 M0 29.38 C0 24.4, 0 19.43, 0 6.62 M0 6.62 C0 2.21, 2.21 0, 6.62 0 M0 6.62 C0 2.21, 2.21 0, 6.62 0" stroke="#000000" stroke-width="1" fill="none"></path></g><g transform="translate(1149.8752057621825 1869.0981278586378) rotate(0 6.499999999999972 13)"><text x="6.5" y="18" font-family="Virgil, Segoe UI Emoji" font-size="20.38079990560245px" fill="#000000" text-anchor="middle" style="white-space: pre;" direction="ltr">x</text></g><g stroke-linecap="round" transform="translate(1212.4421978413593 1864.172898210366) rotate(0 13.757039936281672 18)"><path d="M6.88 0 M6.88 0 C11.48 0, 16.08 0, 20.64 0 M6.88 0 C12.33 0, 17.77 0, 20.64 0 M20.64 0 C25.22 0, 27.51 2.29, 27.51 6.88 M20.64 0 C25.22 0, 27.51 2.29, 27.51 6.88 M27.51 6.88 C27.51 15.61, 27.51 24.34, 27.51 29.12 M27.51 6.88 C27.51 15.71, 27.51 24.54, 27.51 29.12 M27.51 29.12 C27.51 33.71, 25.22 36, 20.64 36 M27.51 29.12 C27.51 33.71, 25.22 36, 20.64 36 M20.64 36 C17.36 36, 14.08 36, 6.88 36 M20.64 36 C17.63 36, 14.63 36, 6.88 36 M6.88 36 C2.29 36, 0 33.71, 0 29.12 M6.88 36 C2.29 36, 0 33.71, 0 29.12 M0 29.12 C0 22.58, 0 16.05, 0 6.88 M0 29.12 C0 23.26, 0 17.4, 0 6.88 M0 6.88 C0 2.29, 2.29 0, 6.88 0 M0 6.88 C0 2.29, 2.29 0, 6.88 0" stroke="#000000" stroke-width="1" fill="none"></path></g><g transform="translate(1217.1897177800008 1869.268098186766) rotate(0 8.5 13)"><text x="8.5" y="18" font-family="Virgil, Segoe UI Emoji" font-size="20.38079990560245px" fill="#000000" text-anchor="middle" style="white-space: pre;" direction="ltr">O</text></g><g stroke-linecap="round" transform="translate(1177.5868491470244 1864.0083549239635) rotate(0 13.247519938641574 18)"><path d="M6.62 0 M6.62 0 C9.79 0, 12.95 0, 19.87 0 M6.62 0 C10.22 0, 13.82 0, 19.87 0 M19.87 0 C24.29 0, 26.5 2.21, 26.5 6.62 M19.87 0 C24.29 0, 26.5 2.21, 26.5 6.62 M26.5 6.62 C26.5 15.35, 26.5 24.07, 26.5 29.38 M26.5 6.62 C26.5 11.41, 26.5 16.2, 26.5 29.38 M26.5 29.38 C26.5 33.79, 24.29 36, 19.87 36 M26.5 29.38 C26.5 33.79, 24.29 36, 19.87 36 M19.87 36 C16.9 36, 13.92 36, 6.62 36 M19.87 36 C14.91 36, 9.96 36, 6.62 36 M6.62 36 C2.21 36, 0 33.79, 0 29.38 M6.62 36 C2.21 36, 0 33.79, 0 29.38 M0 29.38 C0 22.68, 0 15.98, 0 6.62 M0 29.38 C0 22.8, 0 16.21, 0 6.62 M0 6.62 C0 2.21, 2.21 0, 6.62 0 M0 6.62 C0 2.21, 2.21 0, 6.62 0" stroke="#000000" stroke-width="1" fill="none"></path></g><g transform="translate(1183.834369085666 1869.1035549003645) rotate(0 7 13)"><text x="7" y="18" font-family="Virgil, Segoe UI Emoji" font-size="20.38079990560245px" fill="#000000" text-anchor="middle" style="white-space: pre;" direction="ltr">X</text></g><g stroke-linecap="round" transform="translate(1144.6338517814204 1903.8574480243233) rotate(0 13.757039936281672 18)"><path d="M6.88 0 M6.88 0 C11.58 0, 16.28 0, 20.64 0 M6.88 0 C10.12 0, 13.36 0, 20.64 0 M20.64 0 C25.22 0, 27.51 2.29, 27.51 6.88 M20.64 0 C25.22 0, 27.51 2.29, 27.51 6.88 M27.51 6.88 C27.51 13.48, 27.51 20.07, 27.51 29.12 M27.51 6.88 C27.51 11.54, 27.51 16.21, 27.51 29.12 M27.51 29.12 C27.51 33.71, 25.22 36, 20.64 36 M27.51 29.12 C27.51 33.71, 25.22 36, 20.64 36 M20.64 36 C17.53 36, 14.43 36, 6.88 36 M20.64 36 C15.45 36, 10.26 36, 6.88 36 M6.88 36 C2.29 36, 0 33.71, 0 29.12 M6.88 36 C2.29 36, 0 33.71, 0 29.12 M0 29.12 C0 23.45, 0 17.79, 0 6.88 M0 29.12 C0 23.14, 0 17.15, 0 6.88 M0 6.88 C0 2.29, 2.29 0, 6.88 0 M0 6.88 C0 2.29, 2.29 0, 6.88 0" stroke="#000000" stroke-width="1" fill="none"></path></g><g transform="translate(1149.381371720062 1908.9526480007235) rotate(0 8.5 13)"><text x="8.5" y="18" font-family="Virgil, Segoe UI Emoji" font-size="20.38079990560245px" fill="#000000" text-anchor="middle" style="white-space: pre;" direction="ltr">O</text></g><g stroke-linecap="round" transform="translate(1214.1226178041522 1904.0274183524534) rotate(0 13.247519938641574 18)"><path d="M6.62 0 M6.62 0 C10.66 0, 14.7 0, 19.87 0 M6.62 0 C10.66 0, 14.69 0, 19.87 0 M19.87 0 C24.29 0, 26.5 2.21, 26.5 6.62 M19.87 0 C24.29 0, 26.5 2.21, 26.5 6.62 M26.5 6.62 C26.5 12.42, 26.5 18.21, 26.5 29.38 M26.5 6.62 C26.5 12.06, 26.5 17.5, 26.5 29.38 M26.5 29.38 C26.5 33.79, 24.29 36, 19.87 36 M26.5 29.38 C26.5 33.79, 24.29 36, 19.87 36 M19.87 36 C15.15 36, 10.43 36, 6.62 36 M19.87 36 C15.08 36, 10.29 36, 6.62 36 M6.62 36 C2.21 36, 0 33.79, 0 29.38 M6.62 36 C2.21 36, 0 33.79, 0 29.38 M0 29.38 C0 23.52, 0 17.67, 0 6.62 M0 29.38 C0 21.35, 0 13.33, 0 6.62 M0 6.62 C0 2.21, 2.21 0, 6.62 0 M0 6.62 C0 2.21, 2.21 0, 6.62 0" stroke="#000000" stroke-width="1" fill="none"></path></g><g transform="translate(1220.3701377427938 1909.1226183288536) rotate(0 7 13)"><text x="7" y="18" font-family="Virgil, Segoe UI Emoji" font-size="20.38079990560245px" fill="#000000" text-anchor="middle" style="white-space: pre;" direction="ltr">X</text></g><g stroke-linecap="round" transform="translate(1179.1573426476048 1903.862875066051) rotate(0 13.757039936281672 18)"><path d="M6.88 0 M6.88 0 C11.37 0, 15.86 0, 20.64 0 M6.88 0 C9.71 0, 12.54 0, 20.64 0 M20.64 0 C25.22 0, 27.51 2.29, 27.51 6.88 M20.64 0 C25.22 0, 27.51 2.29, 27.51 6.88 M27.51 6.88 C27.51 11.49, 27.51 16.11, 27.51 29.12 M27.51 6.88 C27.51 13.79, 27.51 20.7, 27.51 29.12 M27.51 29.12 C27.51 33.71, 25.22 36, 20.64 36 M27.51 29.12 C27.51 33.71, 25.22 36, 20.64 36 M20.64 36 C16.49 36, 12.34 36, 6.88 36 M20.64 36 C15.61 36, 10.58 36, 6.88 36 M6.88 36 C2.29 36, 0 33.71, 0 29.12 M6.88 36 C2.29 36, 0 33.71, 0 29.12 M0 29.12 C0 22.9, 0 16.68, 0 6.88 M0 29.12 C0 21.61, 0 14.09, 0 6.88 M0 6.88 C0 2.29, 2.29 0, 6.88 0 M0 6.88 C0 2.29, 2.29 0, 6.88 0" stroke="#000000" stroke-width="1" fill="none"></path></g><g transform="translate(1183.9048625862465 1908.9580750424511) rotate(0 8.5 13)"><text x="8.5" y="18" font-family="Virgil, Segoe UI Emoji" font-size="20.38079990560245px" fill="#000000" text-anchor="middle" style="white-space: pre;" direction="ltr">O</text></g><g stroke-linecap="round" transform="translate(1144.9781802586444 1944.0281222142448) rotate(0 13.247519938641574 18)"><path d="M6.62 0 M6.62 0 C10.24 0, 13.85 0, 19.87 0 M6.62 0 C10.66 0, 14.71 0, 19.87 0 M19.87 0 C24.29 0, 26.5 2.21, 26.5 6.62 M19.87 0 C24.29 0, 26.5 2.21, 26.5 6.62 M26.5 6.62 C26.5 13.85, 26.5 21.07, 26.5 29.38 M26.5 6.62 C26.5 14.45, 26.5 22.27, 26.5 29.38 M26.5 29.38 C26.5 33.79, 24.29 36, 19.87 36 M26.5 29.38 C26.5 33.79, 24.29 36, 19.87 36 M19.87 36 C14.61 36, 9.36 36, 6.62 36 M19.87 36 C16.01 36, 12.14 36, 6.62 36 M6.62 36 C2.21 36, 0 33.79, 0 29.38 M6.62 36 C2.21 36, 0 33.79, 0 29.38 M0 29.38 C0 23.12, 0 16.86, 0 6.62 M0 29.38 C0 24.17, 0 18.96, 0 6.62 M0 6.62 C0 2.21, 2.21 0, 6.62 0 M0 6.62 C0 2.21, 2.21 0, 6.62 0" stroke="#000000" stroke-width="1" fill="none"></path></g><g transform="translate(1151.2257001972862 1949.123322190645) rotate(0 7 13)"><text x="7" y="18" font-family="Virgil, Segoe UI Emoji" font-size="20.38079990560245px" fill="#000000" text-anchor="middle" style="white-space: pre;" direction="ltr">X</text></g><g stroke-linecap="round" transform="translate(1214.3570198191637 1944.1980925423732) rotate(0 13.247519938641574 18)"><path d="M6.62 0 M6.62 0 C9.39 0, 12.15 0, 19.87 0 M6.62 0 C9.52 0, 12.41 0, 19.87 0 M19.87 0 C24.29 0, 26.5 2.21, 26.5 6.62 M19.87 0 C24.29 0, 26.5 2.21, 26.5 6.62 M26.5 6.62 C26.5 13.57, 26.5 20.51, 26.5 29.38 M26.5 6.62 C26.5 11.7, 26.5 16.78, 26.5 29.38 M26.5 29.38 C26.5 33.79, 24.29 36, 19.87 36 M26.5 29.38 C26.5 33.79, 24.29 36, 19.87 36 M19.87 36 C16.21 36, 12.54 36, 6.62 36 M19.87 36 C16.09 36, 12.3 36, 6.62 36 M6.62 36 C2.21 36, 0 33.79, 0 29.38 M6.62 36 C2.21 36, 0 33.79, 0 29.38 M0 29.38 C0 23.83, 0 18.27, 0 6.62 M0 29.38 C0 24.26, 0 19.14, 0 6.62 M0 6.62 C0 2.21, 2.21 0, 6.62 0 M0 6.62 C0 2.21, 2.21 0, 6.62 0" stroke="#000000" stroke-width="1" fill="none"></path></g><g transform="translate(1220.6045397578055 1949.2932925187733) rotate(0 7 13)"><text x="7" y="18" font-family="Virgil, Segoe UI Emoji" font-size="20.38079990560245px" fill="#000000" text-anchor="middle" style="white-space: pre;" direction="ltr">X</text></g><g stroke-linecap="round" transform="translate(1179.6215856531983 1944.0335492559698) rotate(0 13.757039936281672 18)"><path d="M6.88 0 M6.88 0 C9.97 0, 13.07 0, 20.64 0 M6.88 0 C10.03 0, 13.19 0, 20.64 0 M20.64 0 C25.22 0, 27.51 2.29, 27.51 6.88 M20.64 0 C25.22 0, 27.51 2.29, 27.51 6.88 M27.51 6.88 C27.51 15.76, 27.51 24.64, 27.51 29.12 M27.51 6.88 C27.51 15.19, 27.51 23.51, 27.51 29.12 M27.51 29.12 C27.51 33.71, 25.22 36, 20.64 36 M27.51 29.12 C27.51 33.71, 25.22 36, 20.64 36 M20.64 36 C17.03 36, 13.43 36, 6.88 36 M20.64 36 C16.07 36, 11.5 36, 6.88 36 M6.88 36 C2.29 36, 0 33.71, 0 29.12 M6.88 36 C2.29 36, 0 33.71, 0 29.12 M0 29.12 C0 22.51, 0 15.91, 0 6.88 M0 29.12 C0 23.67, 0 18.21, 0 6.88 M0 6.88 C0 2.29, 2.29 0, 6.88 0 M0 6.88 C0 2.29, 2.29 0, 6.88 0" stroke="#000000" stroke-width="1" fill="none"></path></g><g transform="translate(1184.3691055918398 1949.1287492323709) rotate(0 8.5 13)"><text x="8.5" y="18" font-family="Virgil, Segoe UI Emoji" font-size="20.38079990560245px" fill="#000000" text-anchor="middle" style="white-space: pre;" direction="ltr">O</text></g><g stroke-linecap="round"><g transform="translate(1084.0581069105456 1883.0081682045757) rotate(0 27.495448625028615 -5.395029385593716)"><path d="M0 0 C4.94 -2.32, 20.45 -14.41, 29.62 -13.89 C38.78 -13.37, 50.76 0.28, 54.99 3.12 M0 0 C4.94 -2.32, 20.45 -14.41, 29.62 -13.89 C38.78 -13.37, 50.76 0.28, 54.99 3.12" stroke="#000000" stroke-width="1" fill="none"></path></g><g transform="translate(1084.0581069105456 1883.0081682045757) rotate(0 27.495448625028615 -5.395029385593716)"><path d="M40.7 -2.28 C44.92 -0.69, 49.14 0.91, 54.99 3.12 M40.7 -2.28 C43.61 -1.18, 46.52 -0.08, 54.99 3.12" stroke="#000000" stroke-width="1" fill="none"></path></g><g transform="translate(1084.0581069105456 1883.0081682045757) rotate(0 27.495448625028615 -5.395029385593716)"><path d="M47.51 -10.2 C49.72 -6.27, 51.93 -2.34, 54.99 3.12 M47.51 -10.2 C49.04 -7.49, 50.56 -4.78, 54.99 3.12" stroke="#000000" stroke-width="1" fill="none"></path></g></g><mask></mask><g stroke-linecap="round"><g transform="translate(1084.200278083444 1922.4139759179252) rotate(0 27.463284853678147 -5.364483041948461)"><path d="M0 0 C4.94 -2.32, 20.46 -14.42, 29.62 -13.89 C38.77 -13.36, 50.71 0.33, 54.93 3.18 M0 0 C4.94 -2.32, 20.46 -14.42, 29.62 -13.89 C38.77 -13.36, 50.71 0.33, 54.93 3.18" stroke="#000000" stroke-width="1" fill="none"></path></g><g transform="translate(1084.200278083444 1922.4139759179252) rotate(0 27.463284853678147 -5.364483041948461)"><path d="M40.66 -2.26 C45.03 -0.59, 49.4 1.07, 54.93 3.18 M40.66 -2.26 C44.15 -0.93, 47.64 0.4, 54.93 3.18" stroke="#000000" stroke-width="1" fill="none"></path></g><g transform="translate(1084.200278083444 1922.4139759179252) rotate(0 27.463284853678147 -5.364483041948461)"><path d="M47.49 -10.15 C49.77 -6.07, 52.05 -1.98, 54.93 3.18 M47.49 -10.15 C49.31 -6.89, 51.13 -3.63, 54.93 3.18" stroke="#000000" stroke-width="1" fill="none"></path></g></g><mask></mask><g stroke-linecap="round"><g transform="translate(1084.6525123158547 1962.2441321067263) rotate(0 27.463284853678147 -5.406780979248197)"><path d="M0 0 C4.94 -2.32, 20.46 -14.41, 29.62 -13.89 C38.77 -13.38, 50.71 0.26, 54.93 3.09 M0 0 C4.94 -2.32, 20.46 -14.41, 29.62 -13.89 C38.77 -13.38, 50.71 0.26, 54.93 3.09" stroke="#000000" stroke-width="1" fill="none"></path></g><g transform="translate(1084.6525123158547 1962.2441321067263) rotate(0 27.463284853678147 -5.406780979248197)"><path d="M40.67 -2.3 C45.54 -0.46, 50.41 1.39, 54.93 3.09 M40.67 -2.3 C45.7 -0.4, 50.73 1.5, 54.93 3.09" stroke="#000000" stroke-width="1" fill="none"></path></g><g transform="translate(1084.6525123158547 1962.2441321067263) rotate(0 27.463284853678147 -5.406780979248197)"><path d="M47.48 -10.2 C50.02 -5.66, 52.57 -1.11, 54.93 3.09 M47.48 -10.2 C50.1 -5.51, 52.73 -0.82, 54.93 3.09" stroke="#000000" stroke-width="1" fill="none"></path></g></g><mask></mask><g stroke-linecap="round"><g transform="translate(1356.4320547326474 1789.3945914431006) rotate(0 1.243941480387889 121.63036737304901)"><path d="M0 0 C0.41 40.54, 2.07 202.72, 2.49 243.26 M0 0 C0.41 40.54, 2.07 202.72, 2.49 243.26" stroke="#000000" stroke-width="1" fill="none"></path></g></g><mask></mask><g transform="translate(1384.3152078020964 1793.7373393201506) rotate(0 166 13)"><text x="0" y="18" font-family="Virgil, Segoe UI Emoji" font-size="20.38079990560245px" fill="#000000" text-anchor="start" style="white-space: pre;" direction="ltr">storing the board info: 9x1 array</text></g><g stroke-linecap="round" transform="translate(1404.2199905132873 1837.2392195664315) rotate(0 13.247519938641574 18)"><path d="M6.62 0 M6.62 0 C9.35 0, 12.07 0, 19.87 0 M6.62 0 C9.28 0, 11.94 0, 19.87 0 M19.87 0 C24.29 0, 26.5 2.21, 26.5 6.62 M19.87 0 C24.29 0, 26.5 2.21, 26.5 6.62 M26.5 6.62 C26.5 11.38, 26.5 16.14, 26.5 29.38 M26.5 6.62 C26.5 14.77, 26.5 22.92, 26.5 29.38 M26.5 29.38 C26.5 33.79, 24.29 36, 19.87 36 M26.5 29.38 C26.5 33.79, 24.29 36, 19.87 36 M19.87 36 C15.23 36, 10.59 36, 6.62 36 M19.87 36 C15.24 36, 10.6 36, 6.62 36 M6.62 36 C2.21 36, 0 33.79, 0 29.38 M6.62 36 C2.21 36, 0 33.79, 0 29.38 M0 29.38 C0 22.2, 0 15.01, 0 6.62 M0 29.38 C0 20.94, 0 12.5, 0 6.62 M0 6.62 C0 2.21, 2.21 0, 6.62 0 M0 6.62 C0 2.21, 2.21 0, 6.62 0" stroke="#000000" stroke-width="1" fill="none"></path></g><g transform="translate(1410.4675104519288 1842.2392195664315) rotate(0 7 13)"><text x="7" y="19" font-family="Virgil, Segoe UI Emoji" font-size="20.618799846603984px" fill="#000000" text-anchor="middle" style="white-space: pre;" direction="ltr">x</text></g><g stroke-linecap="round" transform="translate(1473.5988300738063 1837.4091898945599) rotate(0 13.757039936281672 18)"><path d="M6.88 0 M6.88 0 C11.25 0, 15.62 0, 20.64 0 M6.88 0 C12.38 0, 17.88 0, 20.64 0 M20.64 0 C25.22 0, 27.51 2.29, 27.51 6.88 M20.64 0 C25.22 0, 27.51 2.29, 27.51 6.88 M27.51 6.88 C27.51 14.52, 27.51 22.15, 27.51 29.12 M27.51 6.88 C27.51 13.65, 27.51 20.41, 27.51 29.12 M27.51 29.12 C27.51 33.71, 25.22 36, 20.64 36 M27.51 29.12 C27.51 33.71, 25.22 36, 20.64 36 M20.64 36 C17.5 36, 14.37 36, 6.88 36 M20.64 36 C15.24 36, 9.85 36, 6.88 36 M6.88 36 C2.29 36, 0 33.71, 0 29.12 M6.88 36 C2.29 36, 0 33.71, 0 29.12 M0 29.12 C0 23.49, 0 17.87, 0 6.88 M0 29.12 C0 23.69, 0 18.26, 0 6.88 M0 6.88 C0 2.29, 2.29 0, 6.88 0 M0 6.88 C0 2.29, 2.29 0, 6.88 0" stroke="#000000" stroke-width="1" fill="none"></path></g><g transform="translate(1478.855870010088 1842.4091898945599) rotate(0 8.5 13)"><text x="8.5" y="19" font-family="Virgil, Segoe UI Emoji" font-size="20.60479985007449px" fill="#000000" text-anchor="middle" style="white-space: pre;" direction="ltr">O</text></g><g stroke-linecap="round" transform="translate(1438.7434813794716 1837.2446466081592) rotate(0 13.247519938641574 18)"><path d="M6.62 0 M6.62 0 C11.02 0, 15.41 0, 19.87 0 M6.62 0 C10.14 0, 13.66 0, 19.87 0 M19.87 0 C24.29 0, 26.5 2.21, 26.5 6.62 M19.87 0 C24.29 0, 26.5 2.21, 26.5 6.62 M26.5 6.62 C26.5 14.05, 26.5 21.48, 26.5 29.38 M26.5 6.62 C26.5 12.45, 26.5 18.28, 26.5 29.38 M26.5 29.38 C26.5 33.79, 24.29 36, 19.87 36 M26.5 29.38 C26.5 33.79, 24.29 36, 19.87 36 M19.87 36 C15.41 36, 10.96 36, 6.62 36 M19.87 36 C16.06 36, 12.25 36, 6.62 36 M6.62 36 C2.21 36, 0 33.79, 0 29.38 M6.62 36 C2.21 36, 0 33.79, 0 29.38 M0 29.38 C0 24.8, 0 20.23, 0 6.62 M0 29.38 C0 21.06, 0 12.74, 0 6.62 M0 6.62 C0 2.21, 2.21 0, 6.62 0 M0 6.62 C0 2.21, 2.21 0, 6.62 0" stroke="#000000" stroke-width="1" fill="none"></path></g><g transform="translate(1444.9910013181134 1842.2446466081592) rotate(0 7 13)"><text x="7" y="19" font-family="Virgil, Segoe UI Emoji" font-size="20.618799846603984px" fill="#000000" text-anchor="middle" style="white-space: pre;" direction="ltr">X</text></g><g stroke-linecap="round" transform="translate(1511.4931489317341 1837.9937515699257) rotate(0 13.247519938641574 18)"><path d="M6.62 0 M6.62 0 C10.6 0, 14.58 0, 19.87 0 M6.62 0 C11.4 0, 16.18 0, 19.87 0 M19.87 0 C24.29 0, 26.5 2.21, 26.5 6.62 M19.87 0 C24.29 0, 26.5 2.21, 26.5 6.62 M26.5 6.62 C26.5 13.45, 26.5 20.27, 26.5 29.38 M26.5 6.62 C26.5 11.31, 26.5 15.99, 26.5 29.38 M26.5 29.38 C26.5 33.79, 24.29 36, 19.87 36 M26.5 29.38 C26.5 33.79, 24.29 36, 19.87 36 M19.87 36 C15.76 36, 11.65 36, 6.62 36 M19.87 36 C16.14 36, 12.41 36, 6.62 36 M6.62 36 C2.21 36, 0 33.79, 0 29.38 M6.62 36 C2.21 36, 0 33.79, 0 29.38 M0 29.38 C0 22.13, 0 14.88, 0 6.62 M0 29.38 C0 23.23, 0 17.08, 0 6.62 M0 6.62 C0 2.21, 2.21 0, 6.62 0 M0 6.62 C0 2.21, 2.21 0, 6.62 0" stroke="#000000" stroke-width="1" fill="none"></path></g><g transform="translate(1517.7406688703759 1842.9937515699257) rotate(0 7 13)"><text x="7" y="19" font-family="Virgil, Segoe UI Emoji" font-size="20.618799846603984px" fill="#000000" text-anchor="middle" style="white-space: pre;" direction="ltr">x</text></g><g stroke-linecap="round" transform="translate(1580.8719884922532 1838.1637218980568) rotate(0 13.757039936281672 18)"><path d="M6.88 0 M6.88 0 C10.09 0, 13.31 0, 20.64 0 M6.88 0 C10.61 0, 14.35 0, 20.64 0 M20.64 0 C25.22 0, 27.51 2.29, 27.51 6.88 M20.64 0 C25.22 0, 27.51 2.29, 27.51 6.88 M27.51 6.88 C27.51 12.37, 27.51 17.87, 27.51 29.12 M27.51 6.88 C27.51 14.25, 27.51 21.62, 27.51 29.12 M27.51 29.12 C27.51 33.71, 25.22 36, 20.64 36 M27.51 29.12 C27.51 33.71, 25.22 36, 20.64 36 M20.64 36 C15.2 36, 9.77 36, 6.88 36 M20.64 36 C16.08 36, 11.52 36, 6.88 36 M6.88 36 C2.29 36, 0 33.71, 0 29.12 M6.88 36 C2.29 36, 0 33.71, 0 29.12 M0 29.12 C0 23.9, 0 18.67, 0 6.88 M0 29.12 C0 21.03, 0 12.93, 0 6.88 M0 6.88 C0 2.29, 2.29 0, 6.88 0 M0 6.88 C0 2.29, 2.29 0, 6.88 0" stroke="#000000" stroke-width="1" fill="none"></path></g><g transform="translate(1586.1290284285349 1843.1637218980568) rotate(0 8.5 13)"><text x="8.5" y="19" font-family="Virgil, Segoe UI Emoji" font-size="20.60479985007449px" fill="#000000" text-anchor="middle" style="white-space: pre;" direction="ltr">O</text></g><g stroke-linecap="round" transform="translate(1546.0166397979185 1837.9991786116534) rotate(0 13.247519938641574 18)"><path d="M6.62 0 M6.62 0 C11.39 0, 16.16 0, 19.87 0 M6.62 0 C10.42 0, 14.22 0, 19.87 0 M19.87 0 C24.29 0, 26.5 2.21, 26.5 6.62 M19.87 0 C24.29 0, 26.5 2.21, 26.5 6.62 M26.5 6.62 C26.5 12.12, 26.5 17.62, 26.5 29.38 M26.5 6.62 C26.5 13.01, 26.5 19.41, 26.5 29.38 M26.5 29.38 C26.5 33.79, 24.29 36, 19.87 36 M26.5 29.38 C26.5 33.79, 24.29 36, 19.87 36 M19.87 36 C15.35 36, 10.82 36, 6.62 36 M19.87 36 C15.79 36, 11.71 36, 6.62 36 M6.62 36 C2.21 36, 0 33.79, 0 29.38 M6.62 36 C2.21 36, 0 33.79, 0 29.38 M0 29.38 C0 21.42, 0 13.47, 0 6.62 M0 29.38 C0 22.32, 0 15.27, 0 6.62 M0 6.62 C0 2.21, 2.21 0, 6.62 0 M0 6.62 C0 2.21, 2.21 0, 6.62 0" stroke="#000000" stroke-width="1" fill="none"></path></g><g transform="translate(1552.26415973656 1842.9991786116534) rotate(0 7 13)"><text x="7" y="19" font-family="Virgil, Segoe UI Emoji" font-size="20.618799846603984px" fill="#000000" text-anchor="middle" style="white-space: pre;" direction="ltr">X</text></g><g stroke-linecap="round" transform="translate(1620.9512112556274 1836.9947717507757) rotate(0 13.247519938641574 18)"><path d="M6.62 0 M6.62 0 C10.51 0, 14.39 0, 19.87 0 M6.62 0 C10.32 0, 14.01 0, 19.87 0 M19.87 0 C24.29 0, 26.5 2.21, 26.5 6.62 M19.87 0 C24.29 0, 26.5 2.21, 26.5 6.62 M26.5 6.62 C26.5 12.86, 26.5 19.09, 26.5 29.38 M26.5 6.62 C26.5 15.16, 26.5 23.7, 26.5 29.38 M26.5 29.38 C26.5 33.79, 24.29 36, 19.87 36 M26.5 29.38 C26.5 33.79, 24.29 36, 19.87 36 M19.87 36 C14.75 36, 9.64 36, 6.62 36 M19.87 36 C15.61 36, 11.35 36, 6.62 36 M6.62 36 C2.21 36, 0 33.79, 0 29.38 M6.62 36 C2.21 36, 0 33.79, 0 29.38 M0 29.38 C0 22.15, 0 14.92, 0 6.62 M0 29.38 C0 24.69, 0 20.01, 0 6.62 M0 6.62 C0 2.21, 2.21 0, 6.62 0 M0 6.62 C0 2.21, 2.21 0, 6.62 0" stroke="#000000" stroke-width="1" fill="none"></path></g><g transform="translate(1627.1987311942692 1841.9947717507757) rotate(0 7 13)"><text x="7" y="19" font-family="Virgil, Segoe UI Emoji" font-size="20.618799846603984px" fill="#000000" text-anchor="middle" style="white-space: pre;" direction="ltr">x</text></g><g stroke-linecap="round" transform="translate(1690.3300508161465 1837.164742078905) rotate(0 13.757039936281672 18)"><path d="M6.88 0 M6.88 0 C10.62 0, 14.36 0, 20.64 0 M6.88 0 C9.64 0, 12.4 0, 20.64 0 M20.64 0 C25.22 0, 27.51 2.29, 27.51 6.88 M20.64 0 C25.22 0, 27.51 2.29, 27.51 6.88 M27.51 6.88 C27.51 12.3, 27.51 17.71, 27.51 29.12 M27.51 6.88 C27.51 14.21, 27.51 21.54, 27.51 29.12 M27.51 29.12 C27.51 33.71, 25.22 36, 20.64 36 M27.51 29.12 C27.51 33.71, 25.22 36, 20.64 36 M20.64 36 C17.61 36, 14.58 36, 6.88 36 M20.64 36 C15.31 36, 9.98 36, 6.88 36 M6.88 36 C2.29 36, 0 33.71, 0 29.12 M6.88 36 C2.29 36, 0 33.71, 0 29.12 M0 29.12 C0 23.1, 0 17.09, 0 6.88 M0 29.12 C0 23.31, 0 17.5, 0 6.88 M0 6.88 C0 2.29, 2.29 0, 6.88 0 M0 6.88 C0 2.29, 2.29 0, 6.88 0" stroke="#000000" stroke-width="1" fill="none"></path></g><g transform="translate(1695.5870907524281 1842.164742078905) rotate(0 8.5 13)"><text x="8.5" y="19" font-family="Virgil, Segoe UI Emoji" font-size="20.60479985007449px" fill="#000000" text-anchor="middle" style="white-space: pre;" direction="ltr">O</text></g><g stroke-linecap="round" transform="translate(1655.4747021218118 1837.0001987925034) rotate(0 13.24751993864163 18)"><path d="M6.62 0 M6.62 0 C9.51 0, 12.39 0, 19.87 0 M6.62 0 C11.43 0, 16.24 0, 19.87 0 M19.87 0 C24.29 0, 26.5 2.21, 26.5 6.62 M19.87 0 C24.29 0, 26.5 2.21, 26.5 6.62 M26.5 6.62 C26.5 11.9, 26.5 17.17, 26.5 29.38 M26.5 6.62 C26.5 11.26, 26.5 15.89, 26.5 29.38 M26.5 29.38 C26.5 33.79, 24.29 36, 19.87 36 M26.5 29.38 C26.5 33.79, 24.29 36, 19.87 36 M19.87 36 C15.63 36, 11.38 36, 6.62 36 M19.87 36 C14.59 36, 9.31 36, 6.62 36 M6.62 36 C2.21 36, 0 33.79, 0 29.38 M6.62 36 C2.21 36, 0 33.79, 0 29.38 M0 29.38 C0 22.59, 0 15.81, 0 6.62 M0 29.38 C0 23.2, 0 17.03, 0 6.62 M0 6.62 C0 2.21, 2.21 0, 6.62 0 M0 6.62 C0 2.21, 2.21 0, 6.62 0" stroke="#000000" stroke-width="1" fill="none"></path></g><g transform="translate(1661.7222220604535 1842.0001987925034) rotate(0 7 13)"><text x="7" y="19" font-family="Virgil, Segoe UI Emoji" font-size="20.618799846603984px" fill="#000000" text-anchor="middle" style="white-space: pre;" direction="ltr">X</text></g><g stroke-linecap="round" transform="translate(1458.235658404034 1906.0673061639845) rotate(0 77.25999748758431 62.42453662338494)"><path d="M31.21 0 M31.21 0 C62.96 1.27, 99.25 0.68, 123.31 0 M31.21 0 C61.44 -1.34, 91.63 -0.03, 123.31 0 M123.31 0 C143.96 -0.01, 154.07 9.71, 154.52 31.21 M123.31 0 C145.78 0.76, 153.32 8.79, 154.52 31.21 M154.52 31.21 C156.66 53.57, 154.02 77.57, 154.52 93.64 M154.52 31.21 C155.44 52.66, 155.36 72.15, 154.52 93.64 M154.52 93.64 C155.9 114.88, 145.16 126.02, 123.31 124.85 M154.52 93.64 C152.44 114.98, 145.59 124.23, 123.31 124.85 M123.31 124.85 C87.01 124.97, 51.56 125.51, 31.21 124.85 M123.31 124.85 C93.69 125.36, 65.47 124.37, 31.21 124.85 M31.21 124.85 C11.03 125.57, 1.39 115.61, 0 93.64 M31.21 124.85 C9.97 127.02, 1.22 114.89, 0 93.64 M0 93.64 C0.17 71.41, 0.14 49.16, 0 31.21 M0 93.64 C-1.14 79.27, -1.07 67.06, 0 31.21 M0 31.21 C-1.13 10.95, 11.53 0.38, 31.21 0 M0 31.21 C-2.02 8.88, 9.85 -1.16, 31.21 0" stroke="#000000" stroke-width="1" fill="none"></path></g><g stroke-linecap="round"><g transform="translate(1517.7701701837434 1915.7007223095688) rotate(0 0.09650149224819415 52.95608663277471)"><path d="M-1.04 0.76 C-1.01 18.39, 0.91 88.34, 1.23 105.8 M0.62 0.11 C0.45 17.38, 0.68 86.09, 0.62 103.89" stroke="#000000" stroke-width="1" fill="none"></path></g></g><mask></mask><g stroke-linecap="round"><g transform="translate(1555.7258297973449 1915.5080539866567) rotate(0 0.2714234460353282 53.112583937759155)"><path d="M0.76 0.65 C0.89 18.54, 0.84 88.59, 0.79 106.28 M-0.3 -0.05 C-0.29 17.54, 0.04 86.84, 0.06 104.32" stroke="#000000" stroke-width="1" fill="none"></path></g></g><mask></mask><g stroke-linecap="round"><g transform="translate(1537.714697291834 1894.0396657804822) rotate(90.01224260883218 0.21103022941417748 53.34734746157437)"><path d="M0.65 0.41 C0.97 17.87, 0.77 87.97, 0.89 105.51 M-0.47 -0.42 C-0.19 17.19, -0.15 89.2, 0.1 107.12" stroke="#000000" stroke-width="1" fill="none"></path></g></g><mask></mask><g stroke-linecap="round"><g transform="translate(1537.5179917102619 1931.861726133594) rotate(90.01224260883218 -0.1950474345501334 53.09725542616343)"><path d="M0.41 0.31 C0.37 18, 0.47 89.3, 0.51 106.77 M-0.84 -0.57 C-1.09 16.72, -0.51 87.31, -0.37 105.06" stroke="#000000" stroke-width="1" fill="none"></path></g></g><mask></mask><g transform="translate(1490.4142787728301 1909.810458879615) rotate(0 11 21.5)"><text x="0" y="30" font-family="Virgil, Segoe UI Emoji" font-size="33.91615787676754px" fill="#000000" text-anchor="start" style="white-space: pre;" direction="ltr">X</text></g><g transform="translate(1526.44626559986 1914.6916619368913) rotate(0 11.5 18.5)"><text x="0" y="26" font-family="Virgil, Segoe UI Emoji" font-size="29.292118126887143px" fill="#000000" text-anchor="start" style="white-space: pre;" direction="ltr">O</text></g><g transform="translate(1488.2954877717302 1984.6718987592549) rotate(0 11.5 18.5)"><text x="0" y="26" font-family="Virgil, Segoe UI Emoji" font-size="29.292118126887143px" fill="#000000" text-anchor="start" style="white-space: pre;" direction="ltr">O</text></g><g transform="translate(1563.628802030198 1948.642922374771) rotate(0 11.5 18.5)"><text x="0" y="26" font-family="Virgil, Segoe UI Emoji" font-size="29.292118126887143px" fill="#000000" text-anchor="start" style="white-space: pre;" direction="ltr">O</text></g><g transform="translate(1489.601713796149 1943.633545979067) rotate(0 11 21.5)"><text x="0" y="30" font-family="Virgil, Segoe UI Emoji" font-size="33.91615787676754px" fill="#000000" text-anchor="start" style="white-space: pre;" direction="ltr">X</text></g><g transform="translate(1526.9793684410151 1943.4408776561559) rotate(0 11 21.5)"><text x="0" y="30" font-family="Virgil, Segoe UI Emoji" font-size="33.91615787676754px" fill="#000000" text-anchor="start" style="white-space: pre;" direction="ltr">X</text></g><g stroke-linecap="round"><g transform="translate(1418.7507273791812 1875.957936617373) rotate(0 35.0579481375467 27.900126832492333)"><path d="M0 0 C11.69 9.3, 58.43 46.5, 70.12 55.8 M0 0 C11.69 9.3, 58.43 46.5, 70.12 55.8" stroke="#000000" stroke-width="1" fill="none"></path></g><g transform="translate(1418.7507273791812 1875.957936617373) rotate(0 35.0579481375467 27.900126832492333)"><path d="M41.67 46.27 C47.53 48.24, 53.38 50.2, 70.12 55.8 M41.67 46.27 C51.97 49.72, 62.26 53.17, 70.12 55.8" stroke="#000000" stroke-width="1" fill="none"></path></g><g transform="translate(1418.7507273791812 1875.957936617373) rotate(0 35.0579481375467 27.900126832492333)"><path d="M54.45 30.22 C57.67 35.49, 60.9 40.75, 70.12 55.8 M54.45 30.22 C60.12 39.48, 65.79 48.74, 70.12 55.8" stroke="#000000" stroke-width="1" fill="none"></path></g></g><mask></mask><g stroke-linecap="round"><g transform="translate(1453.4173350389551 1874.2581644563134) rotate(0 38.42588230538502 17.43832095374546)"><path d="M0 0 C12.81 5.81, 64.04 29.06, 76.85 34.88 M0 0 C12.81 5.81, 64.04 29.06, 76.85 34.88" stroke="#000000" stroke-width="1" fill="none"></path></g><g transform="translate(1453.4173350389551 1874.2581644563134) rotate(0 38.42588230538502 17.43832095374546)"><path d="M46.94 32.57 C53.25 33.06, 59.55 33.54, 76.85 34.88 M46.94 32.57 C56.53 33.31, 66.12 34.05, 76.85 34.88" stroke="#000000" stroke-width="1" fill="none"></path></g><g transform="translate(1453.4173350389551 1874.2581644563134) rotate(0 38.42588230538502 17.43832095374546)"><path d="M55.42 13.88 C59.94 18.31, 64.46 22.74, 76.85 34.88 M55.42 13.88 C62.29 20.61, 69.16 27.35, 76.85 34.88" stroke="#000000" stroke-width="1" fill="none"></path></g></g><mask></mask><g stroke-linecap="round"><g transform="translate(1524.729388023362 1872.0619996879159) rotate(0 -54.49173489596285 49.762089928799014)"><path d="M0 0 C-18.07 8.7, -101.48 35.6, -108.44 52.18 C-115.41 68.77, -52.88 91.63, -41.77 99.52 M0 0 C-18.07 8.7, -101.48 35.6, -108.44 52.18 C-115.41 68.77, -52.88 91.63, -41.77 99.52" stroke="#000000" stroke-width="1" fill="none"></path></g><g transform="translate(1524.729388023362 1872.0619996879159) rotate(0 -54.49173489596285 49.762089928799014)"><path d="M-71.54 95.79 C-65.39 96.56, -59.24 97.34, -41.77 99.52 M-71.54 95.79 C-63.36 96.82, -55.19 97.84, -41.77 99.52" stroke="#000000" stroke-width="1" fill="none"></path></g><g transform="translate(1524.729388023362 1872.0619996879159) rotate(0 -54.49173489596285 49.762089928799014)"><path d="M-62.18 77.53 C-57.96 82.08, -53.74 86.62, -41.77 99.52 M-62.18 77.53 C-56.57 83.57, -50.97 89.61, -41.77 99.52" stroke="#000000" stroke-width="1" fill="none"></path></g></g><mask></mask><g stroke-linecap="round"><g transform="translate(1487.756475969401 1872.852335224934) rotate(0 42.08657043030388 17.420101766971584)"><path d="M0 0 C12.15 1.86, 58.88 5.36, 72.91 11.17 C86.94 16.97, 82.3 30.89, 84.17 34.84 M0 0 C12.15 1.86, 58.88 5.36, 72.91 11.17 C86.94 16.97, 82.3 30.89, 84.17 34.84" stroke="#000000" stroke-width="1" fill="none"></path></g><g transform="translate(1487.756475969401 1872.852335224934) rotate(0 42.08657043030388 17.420101766971584)"><path d="M78.42 23.06 C80.16 26.63, 81.9 30.19, 84.17 34.84 M78.42 23.06 C79.98 26.26, 81.54 29.45, 84.17 34.84" stroke="#000000" stroke-width="1" fill="none"></path></g><g transform="translate(1487.756475969401 1872.852335224934) rotate(0 42.08657043030388 17.420101766971584)"><path d="M87.33 22.12 C86.38 25.97, 85.42 29.82, 84.17 34.84 M87.33 22.12 C86.48 25.57, 85.62 29.02, 84.17 34.84" stroke="#000000" stroke-width="1" fill="none"></path></g></g><mask></mask><g transform="translate(1591.7664606281046 1878.7748237722808) rotate(0 64.50000000000006 13)"><text x="0" y="18" font-family="Virgil, Segoe UI Emoji" font-size="20.38079990560245px" fill="#c92a2a" text-anchor="start" style="white-space: pre;" direction="ltr">Indicies: 0-8</text></g><g transform="translate(1831.6706149830936 1791.8093641819178) rotate(0 130 127.5)"><text x="0" y="18.5" font-family="Virgil, Segoe UI Emoji" font-size="20.38079990560245px" fill="#c92a2a" text-anchor="start" style="white-space: pre;" direction="ltr">Possible winning conditions:</text><text x="0" y="44" font-family="Virgil, Segoe UI Emoji" font-size="20.38079990560245px" fill="#c92a2a" text-anchor="start" style="white-space: pre;" direction="ltr">0, 1, 2</text><text x="0" y="69.5" font-family="Virgil, Segoe UI Emoji" font-size="20.38079990560245px" fill="#c92a2a" text-anchor="start" style="white-space: pre;" direction="ltr">3, 4, 5</text><text x="0" y="95" font-family="Virgil, Segoe UI Emoji" font-size="20.38079990560245px" fill="#c92a2a" text-anchor="start" style="white-space: pre;" direction="ltr">6, 7, 8</text><text x="0" y="120.5" font-family="Virgil, Segoe UI Emoji" font-size="20.38079990560245px" fill="#c92a2a" text-anchor="start" style="white-space: pre;" direction="ltr">0, 3, 6</text><text x="0" y="146" font-family="Virgil, Segoe UI Emoji" font-size="20.38079990560245px" fill="#c92a2a" text-anchor="start" style="white-space: pre;" direction="ltr">1, 4, 7</text><text x="0" y="171.5" font-family="Virgil, Segoe UI Emoji" font-size="20.38079990560245px" fill="#c92a2a" text-anchor="start" style="white-space: pre;" direction="ltr">2, 5, 8</text><text x="0" y="197" font-family="Virgil, Segoe UI Emoji" font-size="20.38079990560245px" fill="#c92a2a" text-anchor="start" style="white-space: pre;" direction="ltr">0, 4, 8</text><text x="0" y="222.5" font-family="Virgil, Segoe UI Emoji" font-size="20.38079990560245px" fill="#c92a2a" text-anchor="start" style="white-space: pre;" direction="ltr">2, 4, 6</text><text x="0" y="248" font-family="Virgil, Segoe UI Emoji" font-size="20.38079990560245px" fill="#c92a2a" text-anchor="start" style="white-space: pre;" direction="ltr"></text></g><g stroke-linecap="round"><g transform="translate(1673.7808963889818 1993.337844504781) rotate(0 41.855323034872754 -24.962802194162123)"><path d="M0.8 0.04 C4.59 3.2, 8.31 30.04, 22.16 18.18 C36.02 6.32, 73.92 -56.13, 83.95 -71.12 M-0.24 -0.98 C3.41 1.92, 7.03 28.01, 21.02 16.54 C35.01 5.06, 73.51 -55.25, 83.72 -69.84" stroke="#2b8a3e" stroke-width="4" fill="none"></path></g></g><mask></mask><g stroke-linecap="round"><g transform="translate(1261.7428732427009 1899.6421019712207) rotate(0 20.826211885362852 -23.15507877346363)"><path d="M-0.38 -0.18 C6.78 -7.77, 35.1 -38.62, 42.03 -46.13 M1.62 -1.32 C8.73 -8.74, 34.84 -38.01, 41.27 -45.12" stroke="#c92a2a" stroke-width="4" fill="none"></path></g></g><mask></mask><g stroke-linecap="round"><g transform="translate(1261.2124446081232 1862.9656337095403) rotate(0 21.953174428336013 19.250342853667007)"><path d="M0.65 -0.86 C8.02 5.59, 37.28 31.49, 44.37 38.39 M-0.46 1.31 C6.78 7.88, 35.97 33.11, 43.66 39.36" stroke="#c92a2a" stroke-width="4" fill="none"></path></g></g><mask></mask></svg>