<svg version="1.1" xmlns="http://www.w3.org/2000/svg" viewBox="0 0 639.5276814623389 640.6792713712803" width="639.5276814623389" height="640.6792713712803" filter="invert(93%) hue-rotate(180deg)">
  <!-- svg-source:excalidraw -->
  
  <defs>
    <style class="style-fonts">
      @font-face {
        font-family: "Virgil";
        src: url("https://excalidraw.com/Virgil.woff2");
      }
      @font-face {
        font-family: "Cascadia";
        src: url("https://excalidraw.com/Cascadia.woff2");
      }
    </style>
  </defs>
  <rect x="0" y="0" width="639.5276814623389" height="640.6792713712803" fill="#ffffff"></rect><g stroke-linecap="round"><g transform="translate(203.04449195674442 12.176175460195736) rotate(0 1.4156546294043437 307.2586329297301)"><path d="M-0.12 -1.18 C0.35 101.33, 1.74 511.87, 2.32 614.35 M-1.65 0.82 C-0.77 103.56, 3.77 513.41, 4.48 615.69" stroke="#000000" stroke-width="1" fill="none"></path></g></g><mask></mask><g stroke-linecap="round"><g transform="translate(424.43489946500995 11.052366285026437) rotate(0 0.3498180001729452 309.2872694006137)"><path d="M-1.18 -1.05 C-0.75 101.98, 1.47 514.84, 1.87 618.09 M0.41 1.01 C0.71 104.26, 0.2 517.07, 0.73 619.63" stroke="#000000" stroke-width="1" fill="none"></path></g></g><mask></mask><g stroke-linecap="round"><g transform="translate(319.37831486934874 -114.16993947639094) rotate(90.01224260883218 1.1577055357030304 306.56289994512645)"><path d="M-1.05 -0.37 C-0.47 102.11, 2.57 511.09, 3.37 613.73 M0.6 -1.61 C1.03 101.09, 1.99 512.23, 2.42 614.74" stroke="#000000" stroke-width="1" fill="none"></path></g></g><mask></mask><g stroke-linecap="round"><g transform="translate(318.23095689146794 106.44120098649) rotate(90.01224260883218 1.532864256425455 308.7127181411861)"><path d="M-0.37 0 C0.03 103.25, 0.7 515.65, 1.25 618.48 M1.63 -1.05 C2.5 101.92, 3.29 513.43, 3.44 616.55" stroke="#000000" stroke-width="1" fill="none"></path></g></g><mask></mask></svg>